<svg width="26" height="27" viewBox="0 0 26 27" fill="none" xmlns="http://www.w3.org/2000/svg">
<path d="M0 10C0 4.47715 4.47715 0 10 0H16C21.5228 0 26 4.47715 26 10V17C26 22.5228 21.5228 27 16 27H10C4.47715 27 0 22.5228 0 17V10Z" fill="white"/>
<path d="M12.2324 13.8096C12.2324 15.2406 11.9635 16.3206 11.4258 17.0498C10.8926 17.7744 10.0791 18.1367 8.98535 18.1367C7.90983 18.1367 7.09863 17.7835 6.55176 17.0771C6.00944 16.3662 5.73145 15.3158 5.71777 13.9258V12.2031C5.71777 10.7721 5.98438 9.69889 6.51758 8.9834C7.05534 8.2679 7.87337 7.91016 8.97168 7.91016C10.0609 7.91016 10.8721 8.25879 11.4053 8.95605C11.943 9.65332 12.2188 10.6969 12.2324 12.0869V13.8096ZM10.5713 11.9502C10.5713 11.016 10.4437 10.3324 10.1885 9.89941C9.93327 9.46191 9.52767 9.24316 8.97168 9.24316C8.42936 9.24316 8.0306 9.45052 7.77539 9.86523C7.52018 10.2754 7.38574 10.918 7.37207 11.793V14.0488C7.37207 14.9785 7.50195 15.6712 7.76172 16.127C8.02148 16.5827 8.42936 16.8105 8.98535 16.8105C9.51855 16.8105 9.91276 16.6009 10.168 16.1816C10.4232 15.7578 10.5576 15.097 10.5713 14.1992V11.9502ZM17.6465 12.5244H20.2441V14.042H17.6465V17.002H16.0332V14.042H13.4219V12.5244H16.0332V9.75586H17.6465V12.5244Z" fill="#373737"/>
</svg>
