<svg width="11" height="15" viewBox="0 0 11 15" fill="none" xmlns="http://www.w3.org/2000/svg">
<path d="M5.27344 0C2.36566 0 0 2.36566 0 5.27344C0 6.25588 0.272139 7.21465 0.787178 8.04645L4.97326 14.7923C5.05345 14.9215 5.19472 15 5.34665 15C5.34782 15 5.34897 15 5.35014 15C5.50339 14.9988 5.64495 14.9179 5.72367 14.7864L9.80306 7.9752C10.2897 7.16098 10.5469 6.22673 10.5469 5.27344C10.5469 2.36566 8.18121 0 5.27344 0ZM9.04881 7.52396L5.34 13.7164L1.53419 7.58338C1.10549 6.89104 0.873047 6.09229 0.873047 5.27344C0.873047 2.85029 2.85029 0.873047 5.27344 0.873047C7.69658 0.873047 9.6709 2.85029 9.6709 5.27344C9.6709 6.068 9.45378 6.84633 9.04881 7.52396Z" fill="white"/>
<path d="M5.27344 2.63672C3.81955 2.63672 2.63672 3.81955 2.63672 5.27344C2.63672 6.71804 3.8003 7.91016 5.27344 7.91016C6.76474 7.91016 7.91016 6.70216 7.91016 5.27344C7.91016 3.81955 6.72732 2.63672 5.27344 2.63672ZM5.27344 7.03711C4.29911 7.03711 3.50977 6.24513 3.50977 5.27344C3.50977 4.30418 4.30418 3.50977 5.27344 3.50977C6.2427 3.50977 7.03418 4.30418 7.03418 5.27344C7.03418 6.23095 6.2632 7.03711 5.27344 7.03711Z" fill="white"/>
</svg>
